solid ascii
  facet normal 1.000000e+000 0.000000e+000 -0.000000e+000
    outer loop
      vertex   -1.709000e+002 7.330000e+001 2.800000e+000
      vertex   -1.709000e+002 7.490000e+001 2.800000e+000
      vertex   -1.709000e+002 7.330000e+001 4.200000e+000
    endloop
  endfacet
  facet normal 1.000000e+000 -0.000000e+000 0.000000e+000
    outer loop
      vertex   -1.709000e+002 7.330000e+001 4.200000e+000
      vertex   -1.709000e+002 7.490000e+001 2.800000e+000
      vertex   -1.709000e+002 7.490000e+001 4.200000e+000
    endloop
  endfacet
  facet normal 1.000000e+000 0.000000e+000 -0.000000e+000
    outer loop
      vertex   -1.751000e+002 7.490000e+001 1.600000e+000
      vertex   -1.751000e+002 8.090000e+001 1.600000e+000
      vertex   -1.751000e+002 7.490000e+001 4.200000e+000
    endloop
  endfacet
  facet normal 1.000000e+000 -0.000000e+000 0.000000e+000
    outer loop
      vertex   -1.751000e+002 7.490000e+001 4.200000e+000
      vertex   -1.751000e+002 8.090000e+001 1.600000e+000
      vertex   -1.751000e+002 8.090000e+001 4.200000e+000
    endloop
  endfacet
  facet normal 1.000000e+000 0.000000e+000 -0.000000e+000
    outer loop
      vertex   -1.721000e+002 8.090000e+001 2.800000e+000
      vertex   -1.721000e+002 9.790000e+001 2.800000e+000
      vertex   -1.721000e+002 8.090000e+001 4.200000e+000
    endloop
  endfacet
  facet normal 1.000000e+000 -0.000000e+000 0.000000e+000
    outer loop
      vertex   -1.721000e+002 8.090000e+001 4.200000e+000
      vertex   -1.721000e+002 9.790000e+001 2.800000e+000
      vertex   -1.721000e+002 9.790000e+001 4.200000e+000
    endloop
  endfacet
  facet normal 0.000000e+000 -1.000000e+000 0.000000e+000
    outer loop
      vertex   -1.721000e+002 9.790000e+001 2.800000e+000
      vertex   -1.527000e+002 9.790000e+001 2.800000e+000
      vertex   -1.721000e+002 9.790000e+001 4.200000e+000
    endloop
  endfacet
  facet normal 0.000000e+000 -1.000000e+000 0.000000e+000
    outer loop
      vertex   -1.721000e+002 9.790000e+001 4.200000e+000
      vertex   -1.527000e+002 9.790000e+001 2.800000e+000
      vertex   -1.527000e+002 9.790000e+001 4.200000e+000
    endloop
  endfacet
  facet normal -1.000000e+000 0.000000e+000 0.000000e+000
    outer loop
      vertex   -1.527000e+002 9.790000e+001 2.800000e+000
      vertex   -1.527000e+002 8.090000e+001 2.800000e+000
      vertex   -1.527000e+002 9.790000e+001 4.200000e+000
    endloop
  endfacet
  facet normal -1.000000e+000 -0.000000e+000 0.000000e+000
    outer loop
      vertex   -1.527000e+002 9.790000e+001 4.200000e+000
      vertex   -1.527000e+002 8.090000e+001 2.800000e+000
      vertex   -1.527000e+002 8.090000e+001 4.200000e+000
    endloop
  endfacet
  facet normal -0.000000e+000 -1.000000e+000 0.000000e+000
    outer loop
      vertex   -1.709000e+002 7.330000e+001 0.000000e+000
      vertex   -1.709000e+002 7.330000e+001 2.800000e+000
      vertex   -1.767000e+002 7.330000e+001 0.000000e+000
    endloop
  endfacet
  facet normal 0.000000e+000 -1.000000e+000 0.000000e+000
    outer loop
      vertex   -1.767000e+002 7.330000e+001 0.000000e+000
      vertex   -1.709000e+002 7.330000e+001 2.800000e+000
      vertex   -1.767000e+002 7.330000e+001 4.200000e+000
    endloop
  endfacet
  facet normal 0.000000e+000 -1.000000e+000 0.000000e+000
    outer loop
      vertex   -1.767000e+002 7.330000e+001 4.200000e+000
      vertex   -1.709000e+002 7.330000e+001 2.800000e+000
      vertex   -1.709000e+002 7.330000e+001 4.200000e+000
    endloop
  endfacet
  facet normal -1.000000e+000 0.000000e+000 0.000000e+000
    outer loop
      vertex   -1.767000e+002 1.009000e+002 0.000000e+000
      vertex   -1.767000e+002 7.330000e+001 0.000000e+000
      vertex   -1.767000e+002 1.009000e+002 4.200000e+000
    endloop
  endfacet
  facet normal -1.000000e+000 -0.000000e+000 0.000000e+000
    outer loop
      vertex   -1.767000e+002 1.009000e+002 4.200000e+000
      vertex   -1.767000e+002 7.330000e+001 0.000000e+000
      vertex   -1.767000e+002 7.330000e+001 4.200000e+000
    endloop
  endfacet
  facet normal 0.000000e+000 1.000000e+000 -0.000000e+000
    outer loop
      vertex   -1.481000e+002 1.009000e+002 0.000000e+000
      vertex   -1.767000e+002 1.009000e+002 0.000000e+000
      vertex   -1.481000e+002 1.009000e+002 4.200000e+000
    endloop
  endfacet
  facet normal 0.000000e+000 1.000000e+000 -0.000000e+000
    outer loop
      vertex   -1.481000e+002 1.009000e+002 4.200000e+000
      vertex   -1.767000e+002 1.009000e+002 0.000000e+000
      vertex   -1.767000e+002 1.009000e+002 4.200000e+000
    endloop
  endfacet
  facet normal 1.000000e+000 0.000000e+000 -0.000000e+000
    outer loop
      vertex   -1.481000e+002 7.330000e+001 0.000000e+000
      vertex   -1.481000e+002 1.009000e+002 0.000000e+000
      vertex   -1.481000e+002 7.330000e+001 4.200000e+000
    endloop
  endfacet
  facet normal 1.000000e+000 -0.000000e+000 0.000000e+000
    outer loop
      vertex   -1.481000e+002 7.330000e+001 4.200000e+000
      vertex   -1.481000e+002 1.009000e+002 0.000000e+000
      vertex   -1.481000e+002 1.009000e+002 4.200000e+000
    endloop
  endfacet
  facet normal 0.000000e+000 -1.000000e+000 0.000000e+000
    outer loop
      vertex   -1.539000e+002 7.330000e+001 0.000000e+000
      vertex   -1.481000e+002 7.330000e+001 0.000000e+000
      vertex   -1.539000e+002 7.330000e+001 2.800000e+000
    endloop
  endfacet
  facet normal 0.000000e+000 -1.000000e+000 0.000000e+000
    outer loop
      vertex   -1.539000e+002 7.330000e+001 2.800000e+000
      vertex   -1.481000e+002 7.330000e+001 0.000000e+000
      vertex   -1.481000e+002 7.330000e+001 4.200000e+000
    endloop
  endfacet
  facet normal 0.000000e+000 -1.000000e+000 0.000000e+000
    outer loop
      vertex   -1.539000e+002 7.330000e+001 4.200000e+000
      vertex   -1.539000e+002 7.330000e+001 2.800000e+000
      vertex   -1.481000e+002 7.330000e+001 4.200000e+000
    endloop
  endfacet
  facet normal -1.000000e+000 0.000000e+000 0.000000e+000
    outer loop
      vertex   -1.539000e+002 7.490000e+001 2.800000e+000
      vertex   -1.539000e+002 7.330000e+001 2.800000e+000
      vertex   -1.539000e+002 7.490000e+001 4.200000e+000
    endloop
  endfacet
  facet normal -1.000000e+000 -0.000000e+000 0.000000e+000
    outer loop
      vertex   -1.539000e+002 7.490000e+001 4.200000e+000
      vertex   -1.539000e+002 7.330000e+001 2.800000e+000
      vertex   -1.539000e+002 7.330000e+001 4.200000e+000
    endloop
  endfacet
  facet normal -1.000000e+000 0.000000e+000 0.000000e+000
    outer loop
      vertex   -1.497000e+002 8.090000e+001 1.600000e+000
      vertex   -1.497000e+002 7.490000e+001 1.600000e+000
      vertex   -1.497000e+002 8.090000e+001 4.200000e+000
    endloop
  endfacet
  facet normal -1.000000e+000 -0.000000e+000 0.000000e+000
    outer loop
      vertex   -1.497000e+002 8.090000e+001 4.200000e+000
      vertex   -1.497000e+002 7.490000e+001 1.600000e+000
      vertex   -1.497000e+002 7.490000e+001 4.200000e+000
    endloop
  endfacet
  facet normal 0.000000e+000 -0.000000e+000 1.000000e+000
    outer loop
      vertex   -1.527000e+002 8.090000e+001 4.200000e+000
      vertex   -1.497000e+002 8.090000e+001 4.200000e+000
      vertex   -1.527000e+002 9.790000e+001 4.200000e+000
    endloop
  endfacet
  facet normal -0.000000e+000 0.000000e+000 1.000000e+000
    outer loop
      vertex   -1.527000e+002 9.790000e+001 4.200000e+000
      vertex   -1.497000e+002 8.090000e+001 4.200000e+000
      vertex   -1.481000e+002 1.009000e+002 4.200000e+000
    endloop
  endfacet
  facet normal -0.000000e+000 0.000000e+000 1.000000e+000
    outer loop
      vertex   -1.767000e+002 1.009000e+002 4.200000e+000
      vertex   -1.527000e+002 9.790000e+001 4.200000e+000
      vertex   -1.481000e+002 1.009000e+002 4.200000e+000
    endloop
  endfacet
  facet normal -0.000000e+000 0.000000e+000 1.000000e+000
    outer loop
      vertex   -1.767000e+002 1.009000e+002 4.200000e+000
      vertex   -1.721000e+002 9.790000e+001 4.200000e+000
      vertex   -1.527000e+002 9.790000e+001 4.200000e+000
    endloop
  endfacet
  facet normal -0.000000e+000 0.000000e+000 1.000000e+000
    outer loop
      vertex   -1.767000e+002 1.009000e+002 4.200000e+000
      vertex   -1.751000e+002 8.090000e+001 4.200000e+000
      vertex   -1.721000e+002 9.790000e+001 4.200000e+000
    endloop
  endfacet
  facet normal -0.000000e+000 0.000000e+000 1.000000e+000
    outer loop
      vertex   -1.767000e+002 1.009000e+002 4.200000e+000
      vertex   -1.767000e+002 7.330000e+001 4.200000e+000
      vertex   -1.751000e+002 8.090000e+001 4.200000e+000
    endloop
  endfacet
  facet normal -0.000000e+000 0.000000e+000 1.000000e+000
    outer loop
      vertex   -1.751000e+002 8.090000e+001 4.200000e+000
      vertex   -1.767000e+002 7.330000e+001 4.200000e+000
      vertex   -1.751000e+002 7.490000e+001 4.200000e+000
    endloop
  endfacet
  facet normal -0.000000e+000 0.000000e+000 1.000000e+000
    outer loop
      vertex   -1.751000e+002 7.490000e+001 4.200000e+000
      vertex   -1.767000e+002 7.330000e+001 4.200000e+000
      vertex   -1.709000e+002 7.330000e+001 4.200000e+000
    endloop
  endfacet
  facet normal 0.000000e+000 0.000000e+000 1.000000e+000
    outer loop
      vertex   -1.709000e+002 7.490000e+001 4.200000e+000
      vertex   -1.751000e+002 7.490000e+001 4.200000e+000
      vertex   -1.709000e+002 7.330000e+001 4.200000e+000
    endloop
  endfacet
  facet normal 0.000000e+000 0.000000e+000 1.000000e+000
    outer loop
      vertex   -1.481000e+002 1.009000e+002 4.200000e+000
      vertex   -1.497000e+002 8.090000e+001 4.200000e+000
      vertex   -1.481000e+002 7.330000e+001 4.200000e+000
    endloop
  endfacet
  facet normal 0.000000e+000 0.000000e+000 1.000000e+000
    outer loop
      vertex   -1.481000e+002 7.330000e+001 4.200000e+000
      vertex   -1.497000e+002 8.090000e+001 4.200000e+000
      vertex   -1.497000e+002 7.490000e+001 4.200000e+000
    endloop
  endfacet
  facet normal 0.000000e+000 -0.000000e+000 1.000000e+000
    outer loop
      vertex   -1.539000e+002 7.330000e+001 4.200000e+000
      vertex   -1.497000e+002 7.490000e+001 4.200000e+000
      vertex   -1.539000e+002 7.490000e+001 4.200000e+000
    endloop
  endfacet
  facet normal 0.000000e+000 -0.000000e+000 1.000000e+000
    outer loop
      vertex   -1.539000e+002 7.330000e+001 4.200000e+000
      vertex   -1.481000e+002 7.330000e+001 4.200000e+000
      vertex   -1.497000e+002 7.490000e+001 4.200000e+000
    endloop
  endfacet
  facet normal 5.921189e-016 -1.044916e-016 1.000000e+000
    outer loop
      vertex   -1.751000e+002 8.090000e+001 4.200000e+000
      vertex   -1.721000e+002 8.090000e+001 4.200000e+000
      vertex   -1.721000e+002 9.790000e+001 4.200000e+000
    endloop
  endfacet
  facet normal -1.000000e+000 0.000000e+000 0.000000e+000
    outer loop
      vertex   -1.709000e+002 7.330000e+001 0.000000e+000
      vertex   -1.709000e+002 7.159235e+001 0.000000e+000
      vertex   -1.709000e+002 7.330000e+001 2.800000e+000
    endloop
  endfacet
  facet normal -1.000000e+000 -0.000000e+000 0.000000e+000
    outer loop
      vertex   -1.709000e+002 7.330000e+001 2.800000e+000
      vertex   -1.709000e+002 7.159235e+001 0.000000e+000
      vertex   -1.709000e+002 7.159235e+001 2.800000e+000
    endloop
  endfacet
  facet normal 0.000000e+000 1.000000e+000 0.000000e+000
    outer loop
      vertex   -1.497000e+002 7.490000e+001 4.200000e+000
      vertex   -1.497000e+002 7.490000e+001 1.600000e+000
      vertex   -1.539000e+002 7.490000e+001 2.800000e+000
    endloop
  endfacet
  facet normal -0.000000e+000 1.000000e+000 0.000000e+000
    outer loop
      vertex   -1.539000e+002 7.490000e+001 4.200000e+000
      vertex   -1.497000e+002 7.490000e+001 4.200000e+000
      vertex   -1.539000e+002 7.490000e+001 2.800000e+000
    endloop
  endfacet
  facet normal 0.000000e+000 1.000000e+000 0.000000e+000
    outer loop
      vertex   -1.751000e+002 7.490000e+001 4.200000e+000
      vertex   -1.709000e+002 7.490000e+001 2.800000e+000
      vertex   -1.751000e+002 7.490000e+001 1.600000e+000
    endloop
  endfacet
  facet normal -0.000000e+000 1.000000e+000 0.000000e+000
    outer loop
      vertex   -1.751000e+002 7.490000e+001 4.200000e+000
      vertex   -1.709000e+002 7.490000e+001 4.200000e+000
      vertex   -1.709000e+002 7.490000e+001 2.800000e+000
    endloop
  endfacet
  facet normal -0.000000e+000 1.000000e+000 0.000000e+000
    outer loop
      vertex   -1.709000e+002 7.490000e+001 2.800000e+000
      vertex   -1.539000e+002 7.490000e+001 2.800000e+000
      vertex   -1.751000e+002 7.490000e+001 1.600000e+000
    endloop
  endfacet
  facet normal -0.000000e+000 1.000000e+000 0.000000e+000
    outer loop
      vertex   -1.751000e+002 7.490000e+001 1.600000e+000
      vertex   -1.539000e+002 7.490000e+001 2.800000e+000
      vertex   -1.497000e+002 7.490000e+001 1.600000e+000
    endloop
  endfacet
  facet normal 1.000000e+000 0.000000e+000 0.000000e+000
    outer loop
      vertex   -1.539000e+002 7.330000e+001 2.800000e+000
      vertex   -1.539000e+002 7.159235e+001 2.800000e+000
      vertex   -1.539000e+002 7.330000e+001 0.000000e+000
    endloop
  endfacet
  facet normal 1.000000e+000 0.000000e+000 0.000000e+000
    outer loop
      vertex   -1.539000e+002 7.330000e+001 0.000000e+000
      vertex   -1.539000e+002 7.159235e+001 2.800000e+000
      vertex   -1.539000e+002 7.159235e+001 0.000000e+000
    endloop
  endfacet
  facet normal 0.000000e+000 -1.000000e+000 0.000000e+000
    outer loop
      vertex   -1.709000e+002 7.159235e+001 0.000000e+000
      vertex   -1.539000e+002 7.159235e+001 0.000000e+000
      vertex   -1.709000e+002 7.159235e+001 2.800000e+000
    endloop
  endfacet
  facet normal 0.000000e+000 -1.000000e+000 0.000000e+000
    outer loop
      vertex   -1.709000e+002 7.159235e+001 2.800000e+000
      vertex   -1.539000e+002 7.159235e+001 0.000000e+000
      vertex   -1.539000e+002 7.159235e+001 2.800000e+000
    endloop
  endfacet
  facet normal 0.000000e+000 0.000000e+000 1.000000e+000
    outer loop
      vertex   -1.539000e+002 7.490000e+001 2.800000e+000
      vertex   -1.709000e+002 7.490000e+001 2.800000e+000
      vertex   -1.539000e+002 7.330000e+001 2.800000e+000
    endloop
  endfacet
  facet normal -7.836868e-017 -8.326673e-016 1.000000e+000
    outer loop
      vertex   -1.539000e+002 7.330000e+001 2.800000e+000
      vertex   -1.709000e+002 7.490000e+001 2.800000e+000
      vertex   -1.709000e+002 7.330000e+001 2.800000e+000
    endloop
  endfacet
  facet normal 0.000000e+000 7.801756e-016 1.000000e+000
    outer loop
      vertex   -1.539000e+002 7.159235e+001 2.800000e+000
      vertex   -1.709000e+002 7.330000e+001 2.800000e+000
      vertex   -1.709000e+002 7.159235e+001 2.800000e+000
    endloop
  endfacet
  facet normal -7.836868e-017 0.000000e+000 1.000000e+000
    outer loop
      vertex   -1.539000e+002 7.159235e+001 2.800000e+000
      vertex   -1.539000e+002 7.330000e+001 2.800000e+000
      vertex   -1.709000e+002 7.330000e+001 2.800000e+000
    endloop
  endfacet
  facet normal 0.000000e+000 -1.000000e+000 0.000000e+000
    outer loop
      vertex   -1.751000e+002 8.090000e+001 4.200000e+000
      vertex   -1.751000e+002 8.090000e+001 1.600000e+000
      vertex   -1.721000e+002 8.090000e+001 2.800000e+000
    endloop
  endfacet
  facet normal -0.000000e+000 -1.000000e+000 -0.000000e+000
    outer loop
      vertex   -1.721000e+002 8.090000e+001 4.200000e+000
      vertex   -1.751000e+002 8.090000e+001 4.200000e+000
      vertex   -1.721000e+002 8.090000e+001 2.800000e+000
    endloop
  endfacet
  facet normal 0.000000e+000 -1.000000e+000 -0.000000e+000
    outer loop
      vertex   -1.497000e+002 8.090000e+001 4.200000e+000
      vertex   -1.527000e+002 8.090000e+001 2.800000e+000
      vertex   -1.497000e+002 8.090000e+001 1.600000e+000
    endloop
  endfacet
  facet normal -0.000000e+000 -1.000000e+000 -0.000000e+000
    outer loop
      vertex   -1.497000e+002 8.090000e+001 4.200000e+000
      vertex   -1.527000e+002 8.090000e+001 4.200000e+000
      vertex   -1.527000e+002 8.090000e+001 2.800000e+000
    endloop
  endfacet
  facet normal 0.000000e+000 -1.000000e+000 -0.000000e+000
    outer loop
      vertex   -1.527000e+002 8.090000e+001 2.800000e+000
      vertex   -1.721000e+002 8.090000e+001 2.800000e+000
      vertex   -1.497000e+002 8.090000e+001 1.600000e+000
    endloop
  endfacet
  facet normal -0.000000e+000 -1.000000e+000 0.000000e+000
    outer loop
      vertex   -1.497000e+002 8.090000e+001 1.600000e+000
      vertex   -1.721000e+002 8.090000e+001 2.800000e+000
      vertex   -1.751000e+002 8.090000e+001 1.600000e+000
    endloop
  endfacet
  facet normal 0.000000e+000 0.000000e+000 1.000000e+000
    outer loop
      vertex   -1.527000e+002 9.790000e+001 2.800000e+000
      vertex   -1.721000e+002 9.790000e+001 2.800000e+000
      vertex   -1.527000e+002 8.090000e+001 2.800000e+000
    endloop
  endfacet
  facet normal -1.144560e-016 -1.306145e-016 1.000000e+000
    outer loop
      vertex   -1.527000e+002 8.090000e+001 2.800000e+000
      vertex   -1.721000e+002 9.790000e+001 2.800000e+000
      vertex   -1.721000e+002 8.090000e+001 2.800000e+000
    endloop
  endfacet
  facet normal 0.000000e+000 0.000000e+000 1.000000e+000
    outer loop
      vertex   -1.497000e+002 8.090000e+001 1.600000e+000
      vertex   -1.751000e+002 8.090000e+001 1.600000e+000
      vertex   -1.497000e+002 7.490000e+001 1.600000e+000
    endloop
  endfacet
  facet normal 0.000000e+000 0.000000e+000 1.000000e+000
    outer loop
      vertex   -1.497000e+002 7.490000e+001 1.600000e+000
      vertex   -1.751000e+002 8.090000e+001 1.600000e+000
      vertex   -1.751000e+002 7.490000e+001 1.600000e+000
    endloop
  endfacet
  facet normal 0.000000e+000 0.000000e+000 -1.000000e+000
    outer loop
      vertex   -1.539000e+002 7.159235e+001 0.000000e+000
      vertex   -1.709000e+002 7.159235e+001 0.000000e+000
      vertex   -1.539000e+002 7.330000e+001 0.000000e+000
    endloop
  endfacet
  facet normal -0.000000e+000 0.000000e+000 -1.000000e+000
    outer loop
      vertex   -1.539000e+002 7.330000e+001 0.000000e+000
      vertex   -1.709000e+002 7.159235e+001 0.000000e+000
      vertex   -1.709000e+002 7.330000e+001 0.000000e+000
    endloop
  endfacet
  facet normal -0.000000e+000 0.000000e+000 -1.000000e+000
    outer loop
      vertex   -1.481000e+002 1.009000e+002 0.000000e+000
      vertex   -1.709000e+002 7.330000e+001 0.000000e+000
      vertex   -1.767000e+002 1.009000e+002 0.000000e+000
    endloop
  endfacet
  facet normal -0.000000e+000 0.000000e+000 -1.000000e+000
    outer loop
      vertex   -1.481000e+002 1.009000e+002 0.000000e+000
      vertex   -1.539000e+002 7.330000e+001 0.000000e+000
      vertex   -1.709000e+002 7.330000e+001 0.000000e+000
    endloop
  endfacet
  facet normal -0.000000e+000 -0.000000e+000 -1.000000e+000
    outer loop
      vertex   -1.481000e+002 1.009000e+002 0.000000e+000
      vertex   -1.481000e+002 7.330000e+001 0.000000e+000
      vertex   -1.539000e+002 7.330000e+001 0.000000e+000
    endloop
  endfacet
  facet normal 0.000000e+000 0.000000e+000 -1.000000e+000
    outer loop
      vertex   -1.709000e+002 7.330000e+001 0.000000e+000
      vertex   -1.767000e+002 7.330000e+001 0.000000e+000
      vertex   -1.767000e+002 1.009000e+002 0.000000e+000
    endloop
  endfacet
endsolid
